<svg width="623" height="712" viewBox="0 0 623 712" fill="none" xmlns="http://www.w3.org/2000/svg">
<path fill-rule="evenodd" clip-rule="evenodd" d="M351.373 113.024C355.336 112.6 355.902 117.975 356.442 120.425C357.969 119.461 359.329 120.383 359.674 118.132C364.506 123.194 368.375 129.005 372.665 134.504C376.78 139.78 383.212 143.977 386.772 149.523C389.793 154.232 384.808 161.382 384.192 166.403C383.497 172.062 384.974 178.539 388.839 182.853C390.647 184.87 392.858 186.272 395.53 186.814C398.187 187.353 400.715 185.794 403.055 186.126C404.996 186.401 405.081 187.684 405.758 189.591C406.686 192.207 407.87 194.677 410.061 196.515C412.511 198.567 415.142 199.16 417.011 201.918C418.642 204.324 419.566 206.654 422.096 208.325C425.47 210.554 430.884 211.228 430.519 216.433C431.099 215.972 431.679 215.512 432.259 215.05C433.604 219.373 435.455 223.559 437.432 227.624C438.358 229.529 438.834 230.541 438.786 232.66C438.754 234.056 437.989 235.112 438.816 236.464C440.14 238.627 443.68 238.333 445.297 240.082C446.954 241.876 445.234 244.309 447.149 245.872C446.342 246.119 444.107 247.925 444.947 249.022C446.156 250.598 446.247 248.438 447.095 248.698C449.041 249.294 448.63 251.723 450.148 252.383C450.46 252.519 450.436 251.064 450.42 250.689L450.418 250.675L451.59 252.962C461.456 272.055 473.018 290.243 482.313 309.612L483.417 311.942C500.92 349.357 521.728 385.788 544.739 420.106C550.167 428.201 556.124 436.243 561.143 444.569C566.186 452.938 572.471 460.355 578.049 468.356C583.787 476.588 589.039 485.156 594.823 493.35C599.436 499.885 605.074 506.842 605 515.268C604.965 519.013 604.421 523.15 600.811 525.162C600.724 523.618 598.387 525.326 597.83 525.705C595.419 527.346 596.73 527.164 594.131 526.591C589.913 525.66 586.311 526.92 582.409 524.522C574.132 519.437 565.975 514.209 557.549 509.356C539.339 498.869 521.31 488.131 504.417 475.597C474.886 453.686 442.801 434.052 415.662 409.128C388.543 384.224 360.084 359.515 327.903 341.3C325.746 340.079 319.563 338.247 320.133 335.335C320.633 332.783 326.193 329.205 328.143 327.438C334.912 321.305 341.961 315.501 348.489 309.105C360.542 297.298 372.505 284.267 382.173 270.413C386.875 263.674 389.275 256.178 392.021 248.515C394.444 241.751 396.684 233.425 392.751 226.733C390.93 223.633 388.416 222.376 384.9 222.611C381.99 222.805 382.121 223.401 380.967 220.314C379.725 216.991 378.715 213.136 375.384 211.212C371.933 209.219 369.582 211.344 366.787 213.339C363.572 208.697 359.628 200.664 353.147 200.219C346.379 199.756 342.535 208.116 340.198 213.145C333.287 228.015 324.295 241.905 314.625 255.147C304.143 269.501 293.427 284.102 281.878 297.618C279.433 300.479 276.657 304.655 273.212 306.391C269.678 308.173 266.745 306.499 263.758 304.45C256.718 299.621 249.872 294.662 242.542 290.241C234.424 285.344 226.078 280.858 217.799 276.244C214.146 274.209 210.68 271.758 206.916 269.93C203.409 268.227 199.59 267.383 196 265.892C209.183 261.962 223.068 267.111 235.546 271.195C242.022 273.314 248.795 275.521 255.709 274.951C261.689 274.459 267.116 271.257 271.846 267.76C280.396 261.438 281.068 251.943 278.279 242.346C275.071 231.3 270.164 220.677 266.456 209.782C264.77 204.826 263.608 199.563 267.447 195.281C270.882 191.449 275.327 190.978 280.015 192.486C291.383 196.144 301.467 199.579 313.653 199.231C323.18 198.96 335.298 196.256 341.717 188.514C345.235 184.27 345.369 178.435 345.383 173.171C345.401 166.932 345.007 160.658 344.134 154.482C342.576 143.462 338.534 132.428 343.603 121.728C344.791 119.219 348.099 113.374 351.373 113.024ZM450.417 250.639L450.418 250.675L450.415 250.666C450.412 250.587 450.414 250.586 450.417 250.639Z" fill="#F9D56E"/>
<path fill-rule="evenodd" clip-rule="evenodd" d="M56.11 198.913C59.0886 194.792 67.2396 185.197 73.463 187.297C74.5497 187.663 75.335 188.747 76.0514 189.554C76.559 190.213 77.0624 190.875 77.5621 191.541C77.8725 192.416 78.4297 192.674 79.2344 192.316C81.4168 195.338 84.4966 197.621 85.7514 201.333C86.9935 205.011 90.329 208.578 92.2959 211.952C93.8176 214.561 97.2483 221.527 96.9857 224.79V233.119C96.676 236.356 90.6249 242.147 88.4969 244.336C83.2132 249.775 77.4738 250.471 69.6434 249.777C63.0098 249.189 54.4183 246.978 49.9277 241.705C45.6181 236.646 45.6792 228.806 46.3169 222.576C47.2075 213.875 51.0241 205.949 56.11 198.913ZM76.5203 200.294C75.306 198.038 72.6486 197.481 70.3138 197.748C67.9802 198.015 65.3017 198.211 63.1617 199.252C61.1856 200.214 60.1855 201.899 57.7224 201.333C58.6977 203.015 56.9498 203.986 56.6981 205.501C56.3744 207.447 57.0018 209.191 58.2875 210.669C60.9491 213.727 64.9247 213.668 68.6239 213.966C71.7514 214.218 75.5982 214.736 77.4357 217.666C78.6209 219.556 77.5458 220.917 78.1012 222.815C78.5096 224.214 80.2182 225.017 80.9655 226.218C83.4685 222.533 83.3807 214.641 81.8542 210.701C81.133 208.84 79.7693 206.417 78.6887 204.783C78.3353 204.247 77.5004 203.609 77.2783 203.167C76.8942 202.404 76.9402 201.073 76.5203 200.294Z" fill="#C6535B"/>
<path fill-rule="evenodd" clip-rule="evenodd" d="M368.309 691.712C372.838 689.941 378.42 690.768 383.167 690.853C389.128 690.961 395.105 691.413 401.048 691.878C412.461 692.773 423.816 692.395 435.239 693.462C440.91 693.992 446.585 694.481 452.26 694.964C457.229 695.387 462.999 696.705 467.96 695.757C470.008 695.365 475.536 693.438 474.512 690.439C473.721 688.125 467.498 686.698 465.471 686.04C460.702 684.489 455.778 683.378 450.957 681.996C448.481 681.287 446.015 680.523 443.408 680.77C441.195 680.979 438.864 682.63 436.622 682.44C433.307 682.16 431.598 677.996 429.166 676.16C425.294 673.235 422.424 674.798 419.455 678.021C417.26 680.403 415.17 684.008 411.568 684.222C406.987 684.493 406.095 680.565 408.117 677.234C409.979 674.165 415.049 671.019 415.321 667.194C415.493 664.777 411.627 658.308 409.401 657.388C405.659 655.842 400.369 659.937 396.986 661.194C391.077 663.388 385.045 665.331 379.062 667.313C374.97 668.668 368.898 668.788 368.125 673.583C367.158 679.587 368.336 685.683 368.309 691.712ZM134.118 599.419C135.308 596.783 136.557 595.284 134.179 592.838C132.849 591.47 130.973 590.797 129.664 589.378C127.697 587.245 124.615 581.415 128.831 579.947C132.861 578.543 136.256 584.152 139.499 585.384C143.615 586.948 146.165 584.326 146.754 580.393C147.51 575.34 146.678 570.059 147.282 564.943C147.872 559.927 149.624 555.762 150.968 550.96C151.88 547.704 152.995 544.426 148.86 543.704C145.068 543.042 140.67 544.617 136.825 544.828C130.828 545.157 124.759 545.46 118.812 546.359C112.172 547.363 112.293 554.153 110.626 559.704C106.584 573.161 101.164 586.365 98.6401 600.238C97.5517 606.22 100.436 610.317 103.794 615.021C107.997 620.91 112.37 626.784 117.131 632.24C120.31 635.883 123.892 639.276 128.521 640.951C133.765 642.849 135.769 640.742 134.56 635.573C132.962 628.75 130.552 622.159 130.836 615.053C130.94 612.465 131.692 609.685 129.826 607.519C128.532 606.017 126.315 605.511 124.626 604.597C121.842 603.089 117.529 598.237 122.953 597.193C126.637 596.483 130.552 598.961 134.118 599.419ZM259.38 332.144C262.69 335.84 266.288 339.376 269.426 343.215C271.225 345.418 272.5 348.064 274.431 350.151C278.66 354.722 282.874 349.657 286.619 346.696C301.347 335.052 315.207 322.434 329.24 309.971C335.926 304.033 343.039 298.557 349.618 292.506C356.283 286.377 361.832 279.202 368.076 272.671C371.075 269.535 374.665 266.424 376.516 262.418C378.096 259.002 378.444 255.286 380.244 251.908C383.36 246.058 389.074 239.267 387.764 232.192C383.905 236.237 377.479 250.732 370.746 243.934C365.941 239.082 370.849 231.91 370.635 226.253C366.073 228.189 367.259 236.039 362.395 237.428C359.764 238.18 357.514 235.798 356.287 233.71C354.166 230.1 354.944 226.322 355.908 222.492C356.564 219.882 360.754 211.275 356.61 210.213C353.019 209.292 350.01 215.897 348.819 218.237C346.638 222.529 344.949 226.967 342.554 231.166C338.424 238.405 333.667 245.321 329.131 252.311C319.79 266.706 309.138 280.218 298.181 293.413C286.477 307.506 273.809 320.795 259.38 332.144ZM363.145 377.931C362.673 390.612 351.776 400.228 342.349 407.279C330.301 416.29 319.187 426.531 304.818 431.659C299.286 433.634 292.378 433.065 290.162 439.291C289.296 441.726 290.082 442.62 291.021 445.07C292.489 448.904 293.372 453.061 294.069 457.096C296.439 470.824 294.135 484.804 285.886 496.233C281.501 502.309 275.898 507.474 270.105 512.183C264.326 516.881 258.86 522.361 252.489 526.247C238.901 534.536 223.806 539.295 208.138 541.585C199.989 542.777 191.807 543.838 183.577 544.259C179.309 544.477 175.033 544.517 170.763 544.33C168.855 544.246 161.76 542.634 160.381 543.727C159.32 544.569 158.847 549.664 158.635 551.07C158.184 554.042 157.829 556.973 157.215 559.92C155.982 565.835 154.321 572.526 156.138 578.493C156.664 580.219 157.09 581.624 158.688 582.204C159.701 582.572 161.496 581.925 162.52 581.82C164.837 581.582 167.024 581.489 169.354 581.736C177.001 582.545 184.51 584.499 192.238 583.967C208.714 582.832 225.206 581.672 241.531 579.094C249.472 577.84 257.091 575.467 264.9 573.635C272.343 571.888 279.782 570.124 286.729 566.843C300.339 560.413 312.918 551.908 324.154 541.945C336.15 531.308 344.091 518.7 351.595 504.63C358.187 492.27 363.745 479.76 363.456 465.511C363.273 456.494 361.981 445.322 367.194 437.369C369.576 433.737 374.38 430.37 378.856 432.291C386.979 435.778 379.305 442.682 376.207 446.464C371.744 451.913 372.344 460.21 371.881 466.874C371.334 474.738 369.567 481.635 367.844 489.239C366.158 496.682 369.559 505.512 369.895 513.105C370.26 521.338 370.02 529.58 369.928 537.817C369.745 554.199 370.506 570.537 370.45 586.917C370.42 595.412 370.637 603.949 370.1 612.432C369.611 620.168 368.026 627.569 366.639 635.163C365.278 642.618 363.294 651.545 363.753 659.123C382.366 652.038 400.484 643.669 419.384 637.34C413.489 632.2 413.227 624.936 412.751 617.687C412.125 608.128 410.552 598.65 409.865 589.091C408.509 570.212 408.89 550.352 410.496 531.494C412.22 511.248 415.278 491.07 415.907 470.739C416.21 460.945 415.452 451.126 413.857 441.461C412.513 433.319 411.346 423.073 407.1 415.859C403.043 408.965 395.585 404.586 389.361 399.89C380.26 393.024 371.83 385.303 363.145 377.931ZM364.272 113.123C366.602 116.274 369.235 119.182 372.022 121.935C374.897 124.776 376.121 124.148 379.561 122.671C386.401 119.731 386.27 116.331 382.452 110.438C373.595 96.7675 370.235 80.4883 360.864 67.0976C351.631 53.9043 338.2 43.2446 324.1 35.6369C308.969 27.473 292.572 24.8753 275.517 25.1189C266.802 25.2437 258.03 25.8452 249.369 26.8218C240.943 27.7711 233.449 30.536 225.293 32.6236C221.187 33.6741 216.953 34.5458 212.961 35.9895C209.459 37.2556 206.31 39.2111 202.772 40.3943C195.026 42.9823 187.231 45.875 180.242 50.1078C173.409 54.2472 167.253 58.6617 161.047 63.7432C154.62 69.0059 149.038 75.1221 142.088 79.7426C135.761 83.9505 130.729 89.6178 124.992 94.5485C118.998 99.6996 113.47 106.012 108.973 112.522C104.576 118.887 102.903 127.123 100.247 134.301C97.1549 142.656 94.0882 151.587 92.9234 160.445C90.7527 176.951 95.6243 196.244 101.818 211.519C107.945 226.627 117.874 239.233 129.721 250.294C135.496 255.689 141.798 260.585 148.859 264.192C154.899 267.278 162.775 272.826 169.349 268.949C172.011 267.379 174.172 265.554 177.249 264.847C180.613 264.075 183.908 264.391 186.623 261.925C188.931 259.829 190.035 257.299 193.065 256.034C196.658 254.533 200.907 254.26 204.754 254.272C213.393 254.301 222.037 256.463 230.282 258.861C237.838 261.058 244.161 264.372 252.188 262.364C258.153 260.872 267.72 256.905 269.006 250.067C270.155 243.955 265.72 236.054 263.487 230.585C260.4 223.027 257.604 215.592 255.665 207.646C254.128 201.35 251.715 191.277 256.053 185.522C260.316 179.868 270.171 179.936 276.294 181.358C280.307 182.29 283.996 184.167 288.011 185.113C292.101 186.077 296.333 186.561 300.505 187.034C314.964 188.669 335.534 184.972 334.764 166.496C334.079 150.029 325.005 133.522 330.319 117.035C332.484 110.315 336.908 102.543 344.275 100.769C350.118 99.3616 358.015 100.837 363.17 103.893C367.306 106.346 371.405 111.483 364.272 113.123ZM73.9174 186.675C59.3427 189.518 49.7038 204.881 47.0326 218.504C45.8223 224.677 45.3946 232.029 47.7357 238.002C50.4342 244.888 58.0608 247.762 64.7906 249.206C72.4839 250.857 79.3011 250.212 85.4 244.879C88.0809 242.533 90.3523 239.801 92.2791 236.816C94.249 233.763 96.9893 231.539 95.0079 228.127C90.0975 219.673 85.9072 211.368 82.673 202.068C81.2297 197.918 79.9472 193.863 78.9893 189.589C78.2291 186.195 77.8608 184.124 73.9174 186.675ZM201.564 278.893C198.744 281.609 195.504 283.773 191.864 285.233C187.871 286.834 186.659 286.065 186.857 290.684C187.076 295.784 187.113 299.866 184.788 304.612C183.7 306.834 179.68 309.832 180.439 312.331C181.529 315.918 192.693 319.545 195.95 320.799C203.742 323.801 212.833 323.862 220.188 319.621C228.731 314.695 229.487 305.764 226.269 297.121C225.926 296.199 224.677 294.641 224.984 293.634C225.548 291.789 227.869 292.055 229.201 292.76C232.093 294.29 233.301 298.943 233.924 301.847C235.587 309.605 232.532 318.007 226.726 323.352C223.775 326.067 220.085 327.882 216.321 329.19C214.185 329.933 211.943 330.52 209.687 330.747C207.864 330.93 205.562 330.355 203.821 330.875C200.753 331.789 200.616 335.573 199.849 338.339C198.479 343.283 197.907 348.635 197.727 353.75C197.436 362.023 198.421 372.563 203.18 379.577C214.283 395.941 235.757 401.621 252.523 410.042C261.435 414.519 269.699 420.143 277.634 426.155C278.418 426.749 279.591 427.913 280.532 428.376C283.713 429.941 280.935 429.371 282.971 428.337C284.539 427.541 285.881 425.812 287.501 424.911C291.232 422.834 295.422 421.713 299.217 419.751C308.04 415.188 315.846 409.526 323.677 403.483C331.701 397.29 339.828 391.636 347.148 384.587C350.235 381.615 353.71 379.165 356.841 376.321C359.995 373.455 355.959 372.266 353.288 370.157C344.198 362.978 335.221 355.571 325.514 349.226C322.276 347.109 319.42 344.254 316.042 342.383C312.514 340.429 310.42 342.18 307.641 344.665C304.604 347.38 301.709 350.042 298.329 352.365C293.865 355.434 288.675 356.911 284.187 359.833C287.068 362.849 294.094 363.858 295.113 368.427C296.147 373.057 289.252 376.67 286.029 378.458C280.339 381.616 274.062 383.533 267.721 384.903C262.445 386.042 254.623 384.327 250.395 388.309C249.189 385.759 248.059 384.427 250.043 381.988C252.025 379.553 255.558 379.134 258.355 378.197C265.908 375.666 273.348 372.294 280.657 369.133C279.687 366.863 277.262 365.309 275.414 363.831C272.775 361.72 270.558 359.381 268.41 356.756C264.312 351.749 260.637 346.408 256.734 341.254C255.042 339.018 253.498 336.786 250.407 338.024C247.678 339.117 245.015 341.95 242.393 343.418C236.462 346.738 231.274 349.925 224.746 352.037C222.116 352.888 211.345 355.312 214.21 348.728C215.059 346.776 217.897 345.972 219.645 345.119C222.875 343.541 226.095 341.933 229.207 340.131C235.6 336.431 241.238 331.65 247.219 327.346C253.817 322.598 260.528 317.99 266.723 312.713C260.559 308.63 253.721 305.64 247.347 301.906C240.904 298.131 234.414 294.719 227.75 291.366C222.444 288.696 217.051 285.849 212.213 282.399C210.29 281.026 203.673 275.324 201.564 278.893ZM395.377 146.097C394.566 146.301 393.764 146.533 392.968 146.791C398.372 155.053 392.406 165.281 394.097 174.22C399.086 171.27 399.739 159.795 407.314 161.917C415.472 164.202 411.412 174.243 413.882 179.986C417.738 176.616 422.239 179.766 423.83 183.764C425.552 188.096 423.164 192.095 423.967 196.382C424.797 200.818 427.276 197.907 428.65 195.291C430.401 191.956 431.931 187.448 431.286 183.633C430.501 178.994 427.386 174.68 425.456 170.466C423.539 166.279 421.723 162.006 418.949 158.291C413.693 151.257 404.565 144.937 395.377 146.097ZM447.634 245.17C444.107 236.365 438.886 228.302 435.55 219.427C434.575 216.832 434.03 212.695 431.45 211.096C429.755 210.045 427.499 210.676 425.63 210.111C423.766 209.548 421.802 208.206 420.465 206.821C418.02 204.288 417.227 200.812 414.343 198.606C410.621 195.759 407.746 194.667 405.975 189.91C404.585 186.174 404.582 185.626 400.404 186.46C395.843 187.37 392.138 186.255 388.991 182.692C383.662 176.659 383.073 168.16 385.688 160.878C386.911 157.472 389.039 153.51 387.272 149.945C385.629 146.632 381.642 144.254 379.115 141.614C372.728 134.941 367.729 127.132 361.74 120.13C360.306 118.455 358.841 116.784 357.736 114.864C357.034 113.644 356.62 111.546 354.993 111.201C352.194 110.607 348.285 115.448 346.877 117.211C336.567 130.115 343.943 147.69 345.199 162.237C345.838 169.645 347.275 178.526 343.989 185.502C340.894 192.075 333.058 195.356 326.455 197.186C317.548 199.655 307.982 199.546 298.919 198.047C294.172 197.262 289.616 195.922 285.123 194.224C280.525 192.486 275.743 189.497 271.057 192.65C265.009 196.721 266.878 204.888 268.206 210.84C270.376 220.563 274.165 229.632 277.517 238.973C280.332 246.818 282.611 256.66 276.693 263.68C270.782 270.691 260.979 275.079 251.855 274.715C232.939 273.961 215.672 259.857 196.342 265.626C199.974 267.127 203.813 268.01 207.362 269.729C211.646 271.803 215.611 274.56 219.77 276.868C227.753 281.296 235.764 285.661 243.566 290.406C250.616 294.692 257.281 299.388 264.009 304.139C272.393 310.058 276.809 303.502 282.187 297.108C293.929 283.151 305.106 268.371 315.774 253.58C325.049 240.722 333.658 227.296 340.365 212.931C342.765 207.791 346.806 199.072 353.829 200.086C360.063 200.986 363.699 208.508 366.922 213.112C369.171 211.5 371.099 209.346 374.135 210.233C376.654 210.967 378.395 213.551 379.51 215.755C380.276 217.27 380.798 222.375 382.08 223.143C382.991 223.69 386.475 222.515 388.028 222.874C393.343 224.102 395.042 230.934 394.988 235.675C394.913 242.211 392.182 248.75 389.944 254.802C384.928 268.369 376.334 278.972 366.861 289.692C357.246 300.571 347.181 310.432 336.337 320.086C333.661 322.468 331.011 324.878 328.402 327.334C326.262 329.347 322.874 331.442 321.2 333.808C318.101 338.185 326.391 340.172 329.476 341.774C342.749 348.666 354.981 357.744 366.67 367C378.725 376.546 390.847 386.129 402.43 396.244C413.761 406.139 424.464 416.685 436.397 425.887C448.656 435.34 461.501 444.068 474.099 453.063C486.709 462.067 498.979 471.54 511.574 480.556C523.883 489.366 537.096 496.919 550.043 504.741C556.815 508.834 563.623 512.867 570.427 516.907C575.929 520.174 581.9 525.251 588.423 525.664C594.3 526.036 599.874 528.199 603.387 521.809C606.053 516.958 604.949 510.285 602.614 505.573C599.765 499.821 595.307 494.533 591.726 489.21C587.607 483.09 583.785 476.793 579.72 470.641C575.823 464.742 571.491 459.298 567.143 453.739C562.735 448.103 559.39 441.751 555.461 435.784C547.064 423.027 538.43 410.501 530.469 397.459C512.211 367.547 495.859 336.668 480.233 305.325C478.857 302.563 446.735 245.661 447.634 245.17ZM421.927 429.07C431.74 462.988 426.081 497.478 424.069 531.983C423.052 549.429 422.897 566.984 422.446 584.454C422.226 592.946 422.242 601.445 422.594 609.934C422.772 614.204 423.084 618.46 423.388 622.722C423.657 626.491 422.646 630.658 423.121 634.294C423.73 638.952 432.978 639.866 430.137 645.844C428.231 649.855 421.556 650.467 417.98 652.158C419.57 653.999 422.057 656.754 424.709 656.928C427.097 657.083 428.942 655.012 431.083 654.229C432.984 653.533 435.599 652.859 436.799 655.078C438.056 657.401 435.424 659.983 434.383 661.783C437.922 662.468 440.37 660.355 443.563 660.549C446.922 660.753 447.074 664.058 449.282 665.971C451.806 668.158 456.214 668.628 459.326 669.548C462.947 670.618 466.586 671.946 469.883 673.804C475.778 677.125 480.841 683.4 483.02 689.822C485.277 696.478 481.752 702.238 476.501 706.323C474.544 707.844 471.74 709.612 469.145 708.792C466.179 707.854 465.716 705.441 462.102 705.62C458.856 705.781 455.775 707.077 452.512 707.243C447.716 707.488 442.925 706.614 438.124 706.798C418.75 707.542 399.374 707.708 380.033 705.845C375.028 705.363 370.123 704.969 365.19 704.811C361.354 704.689 361.033 701.828 360.383 698.236C358.813 689.562 362.285 681.022 360.566 672.593C360.68 673.149 357.964 671.702 357.637 671.427C355.643 669.749 354.977 667.365 354.384 664.887C352.802 658.29 352.818 651.568 353.307 644.84C354.419 629.568 357.26 614.438 357.028 599.086C356.91 591.348 357.144 583.628 357.146 575.893C357.148 568.788 357.791 561.776 357.851 554.72C357.982 539.25 359.611 523.953 360.065 508.5C356.845 511.632 355.137 516 353.092 519.909C350.576 524.715 347.77 529.472 344.697 533.944C338.353 543.18 329.841 550.697 321.023 557.511C304.195 570.514 285.913 580.585 265.296 586.1C242.977 592.07 220.405 596.101 197.396 598.365C192.072 598.889 186.689 599.173 181.354 598.654C177.86 598.315 172.181 595.492 168.861 596.924C165.088 598.552 164.329 602.467 159.382 601.369C157.494 600.95 156.127 599.689 154.474 598.839C152.043 597.588 151.946 598.452 149.625 598.611C147.037 598.789 145.486 597.496 143.23 599.58C141.315 601.349 141.501 602.589 143.25 604.245C145.709 606.573 149.645 606.963 152.106 609.394C154.501 611.758 154.072 614.664 150.373 614.699C146.651 614.735 143.343 612.085 139.706 611.74C140.481 622.5 143.719 634.521 140.129 645.078C138.463 649.975 134.89 653.13 129.561 653.096C120.643 653.039 112.821 644.835 107.45 638.445C104.481 634.913 102.074 630.944 99.2079 627.324C96.2771 623.624 93.1339 619.903 91.4558 615.428C89.671 610.667 90.1921 605.889 91.1901 601.002C92.4253 594.952 93.5731 588.841 95.0662 582.849C97.9606 571.23 103.784 560.623 106.724 549.039C107.836 544.656 107.822 539.513 110.629 535.755C113.6 531.775 118.223 531.52 122.808 531.775C128.483 532.09 134.154 532.718 139.799 533.36C143.364 533.765 151.175 536.336 154.076 534.145C155.075 533.391 155.077 531.414 156.245 530.732C157.371 530.074 159.189 530.546 160.42 530.638C166.515 531.09 172.663 531.639 178.77 531.817C201.47 532.481 225.424 528.943 245.691 518.398C255.096 513.504 262.261 505.8 269.82 498.524C277.253 491.369 283.731 483.668 285.731 473.281C287.557 463.798 286.866 452.457 283.833 443.278C280.879 434.337 270.394 428.921 262.763 424.512C252.181 418.398 240.947 413.331 229.546 408.942C227.736 408.246 225.536 407.359 223.546 407.715C221.105 408.152 219.466 410.266 217.246 411.2C214.607 412.309 211.37 412.315 208.585 412.963C205.885 413.591 203.253 414.455 200.503 414.87C191.842 416.176 179.671 415.133 172.513 409.601C160.813 400.559 167.882 387.762 171.641 376.756C167.667 376.622 164.358 377.551 160.565 375.851C156.786 374.156 153.831 371.156 152.108 367.398C148.974 360.56 150.784 352.703 151.709 345.573C152.127 342.349 152.604 339.15 153.834 336.122C154.787 333.777 156.351 331.542 156.929 329.062C157.565 326.33 156.74 326.171 154.462 324.865C150.949 322.851 148.421 320.535 146.271 317C142.06 310.077 141.956 302.52 145.406 295.237C146.803 292.29 150.135 288.237 149.756 284.795C149.43 281.833 146.078 279.526 144.104 277.587C138.008 271.598 131.527 266.069 124.767 260.845C121.608 258.403 118.128 256.187 115.257 253.413C113.153 251.381 111.016 246.96 108.139 245.891C105.259 244.822 103.341 248.038 101.335 249.762C98.2075 252.449 95.2112 255.541 91.8035 257.87C85.6912 262.048 78.1126 261.266 71.2105 259.932C64.0001 258.537 57.3127 256.082 51.1653 252.031C48.7228 250.421 45.8702 247.152 42.8629 246.89C39.6506 246.611 36.161 249.804 33.8653 251.721C27.872 256.726 26.0726 264.5 22.5818 271.224C18.6839 278.733 17.0282 286.527 18.0887 294.968C19.043 302.562 21.9678 308.3 26.3195 314.434C27.2186 315.703 29.3256 318.1 27.7858 319.503C25.9021 321.22 22.0418 317.777 20.7769 316.665C8.21204 305.614 1.07086 288.963 5.14954 272.294C7.33903 263.344 11.6222 255.063 16.5957 247.362C18.7106 244.086 20.7739 240.811 24.4521 239.14C28.6388 237.239 33.383 237.465 37.8554 237.009C34.762 221.867 33.7937 205.39 43.2991 192.193C50.5932 182.066 65.5308 173.205 77.3694 181.417C76.8841 170.254 75.2928 159.653 78.2637 148.661C79.5953 143.736 81.419 138.943 83.6607 134.358C85.8568 129.866 88.8896 126.056 90.6641 121.38C97.6639 102.934 111.095 86.4567 125.44 73.218C139.941 59.8358 154.17 43.5099 172.436 35.1377C191.492 26.402 210.899 18.5519 231.561 14.5827C253.006 10.4626 275.049 9.6169 296.653 13.5177C315.591 16.9375 333.118 28.4357 347.448 40.8317C363.8 54.9766 374.357 72.0294 382.708 91.7823C384.542 96.1211 386.311 100.497 388.561 104.644C391.057 109.245 394.263 113.524 396.099 118.461C397.736 122.864 398.012 127.641 395.096 131.575C393.046 134.341 388.84 134.965 387.048 137.495C386.143 138.771 386.234 139.985 388.223 140.365C390.277 140.757 391.256 138.466 392.733 137.547C396.409 135.259 401.596 137.209 405.312 138.508C414.125 141.589 421.023 147.123 426.297 154.793C431.344 162.134 434.696 170.474 438.028 178.683C440.131 183.862 442.132 189.007 443.29 194.494C443.725 196.558 444.332 202.154 441.07 199.702C439.747 198.708 437.857 206.252 438.214 207.453C439.454 211.631 443.878 215.548 446.481 218.931C452.603 226.883 456.703 235.791 461.021 244.785C470.375 264.261 480.791 283.168 490.798 302.307C511.177 341.282 533.448 378.76 556.808 416.014C568.382 434.471 580.314 452.613 592.686 470.546C598.146 478.459 603.622 486.377 608.962 494.371C613.501 501.164 617.98 508.728 616.812 517.206C615.743 524.969 611.131 531.204 603.673 533.743C599.677 535.104 594.932 536.672 590.655 536.254C585.978 535.797 581.851 532.668 577.953 530.319C560.037 519.522 542.119 508.736 524.192 497.959C504.143 485.906 485.807 471.595 466.679 458.194C456.946 451.376 446.91 445.231 436.769 439.059C434.485 437.669 424.124 427.711 421.927 429.07Z" fill="black"/>
<path fill-rule="evenodd" clip-rule="evenodd" d="M248.331 463.383C243.434 470.593 238.284 477.369 231.391 482.84C224.129 488.603 216.535 493.272 208.427 497.744C194.128 505.63 174.961 512.614 158.353 509.039C153.63 508.023 146.074 503.89 150.18 497.99C152.244 495.025 156.671 495.798 159.805 495.961C164.854 496.225 169.269 496.512 174.107 494.814C182.996 491.691 191.946 488.746 200.626 485.071C209.033 481.51 216.406 476.627 224.119 471.83C231.353 467.331 236.871 461.946 243.226 456.507C244.966 455.018 247.958 452.411 249.604 455.308C250.794 457.401 248.983 461.336 248.331 463.383Z" fill="black"/>
<path fill-rule="evenodd" clip-rule="evenodd" d="M446.212 117.069C445.665 120.192 444.185 126.406 439.791 125.557C434.185 124.475 436.947 113.501 436.861 109.776C436.489 93.544 431.197 77.9359 423.36 63.8626C419.463 56.866 414.663 50.3959 411.122 43.199C410.434 41.8006 408.346 38.3326 409.863 36.8155C411.685 34.9937 415.176 37.7429 416.46 39.0431C421.422 44.0705 425.375 51.6075 429.205 57.5234C434.32 65.4214 438.838 73.7629 442.082 82.6187C445.999 93.3164 448.199 105.723 446.212 117.069Z" fill="black"/>
<path fill-rule="evenodd" clip-rule="evenodd" d="M456.699 65.1614C457.223 67.9762 459.785 75.6351 455.216 76.3143C450.037 77.0844 448.428 64.3229 446.99 60.942C446.232 59.1597 442.192 51.31 444.298 49.6013C448.682 46.0439 455.66 62.8963 456.699 65.1614Z" fill="black"/>
<path fill-rule="evenodd" clip-rule="evenodd" d="M212.948 444.991C208.032 449.47 202.325 449.207 196.12 448.781C192.969 448.564 185.672 446.698 190.743 442.79C193.392 440.749 214.175 439.345 212.948 444.991Z" fill="black"/>
<path fill-rule="evenodd" clip-rule="evenodd" d="M596 527C596.35 526.305 599.299 522.969 599.935 524.318C600.536 525.59 596.779 526.962 596 527Z" fill="black"/>
<path fill-rule="evenodd" clip-rule="evenodd" d="M205 279.392C204.395 280.639 201.87 279.55 201 279.739C202.182 277.208 203.587 277.75 205 279.392Z" fill="black"/>
<path fill-rule="evenodd" clip-rule="evenodd" d="M395 147C394.737 148 394.475 149 394.213 150C393.809 149.251 393.404 148.502 393 147.752C393.666 147.502 394.334 147.251 395 147Z" fill="black"/>
<path fill-rule="evenodd" clip-rule="evenodd" d="M399.828 335.935C406.137 336.571 412.467 336.893 418.801 337.088C424.148 337.252 426.344 336.241 427.027 330.684C427.836 324.096 428.112 317.449 428.921 310.858C429.288 307.864 432.192 301.881 428.694 300.278C425.762 298.935 421.189 300.859 418.118 301.085C414.697 301.337 409.535 300.294 406.511 302.322C403.278 304.49 403.982 312.082 403.431 315.645C402.381 322.438 401.115 329.185 399.828 335.935ZM396.818 303.938C391.1 304.37 385.363 304.711 379.661 305.32C377.123 305.592 371.987 306.847 369.848 305C364.827 300.667 383.592 299.146 385.721 298.804C389.309 298.228 395.449 298.993 397.749 295.606C400.024 292.256 399.449 286.627 400.037 282.738C400.922 276.885 401.934 271.04 402.525 265.149C402.723 263.169 402.44 256.628 404.531 255.656C409.337 253.422 407.827 276.443 407.748 278.171C407.613 281.142 407.464 284.127 407.05 287.073C406.817 288.734 405.996 290.98 406.502 292.648C407.951 297.431 416.183 294.673 419.933 294.291C424.135 293.863 430.624 295.491 432.015 290.306C433.763 283.79 433.509 276.39 434.157 269.686C434.336 267.832 434.804 253.986 438.221 255.059C442.036 256.258 440.547 267.828 440.512 270.807C440.473 274.169 440.486 277.533 440.258 280.889C440.054 283.904 439.204 287.599 439.833 290.586C440.936 295.823 447.145 293.038 448.947 297.204C450.659 301.163 441.325 298.059 439.582 299.419C436.979 301.45 437.605 309.936 437.233 312.907C436.417 319.434 434.85 326.211 434.34 332.718C433.939 337.855 438.068 337.173 442.27 336.801C445.874 336.482 449.833 335.626 453.445 336.107C456.347 336.492 460.402 339.166 456.177 340.945C449.571 343.728 436.12 338.043 432.801 346.494C432.175 348.088 429.262 366.576 425.602 357.45C424.072 353.635 427.818 347.65 423.823 344.727C422.438 343.713 420.375 343.892 418.768 343.78C414.811 343.504 410.829 343.41 406.864 343.328C402.911 343.246 399.359 342.45 397.832 346.78C396.643 350.154 396.775 353.929 395.825 357.382C395.112 359.97 392.772 364.5 390.345 360.266C388.751 357.485 389.971 352.626 390.286 349.602C390.443 348.088 391.346 344.955 390.197 343.683C388.964 342.318 385.664 343.057 384.104 343.18C379.601 343.537 371.215 345.704 367.768 341.62C364.885 338.203 370.879 338.138 373.236 337.907C375.664 337.669 378.093 337.449 380.519 337.194C383.19 336.912 386.726 337.288 389.24 336.451C393.462 335.045 393.161 329.305 393.438 325.582C393.981 318.309 395.617 311.125 396.818 303.938Z" fill="black"/>
<path fill-rule="evenodd" clip-rule="evenodd" d="M471 319.471C470.659 323.67 470.204 328.378 468.848 332.369C467.822 335.385 465.751 336.302 465.045 332.461C464.597 330.027 467.572 316.308 471 319.471Z" fill="black"/>
<path fill-rule="evenodd" clip-rule="evenodd" d="M204.428 291.822C202.744 290.613 194.769 284.254 200.533 284.003C203.476 283.874 209.817 288.715 209.999 291.401C210.045 292.079 208.595 292.43 208.674 293.086C208.824 294.335 210.673 294.926 211.269 295.919C212.582 298.109 212.037 302.436 210.341 304.518C206.473 309.266 202.178 301.228 205.172 299.651C204.505 300.002 195.551 295.451 195.215 294.423C193.373 288.79 203.975 294.097 204.428 291.822Z" fill="black"/>
<path fill-rule="evenodd" clip-rule="evenodd" d="M218.484 313.988C216.439 314.052 212.331 313.91 210.799 312.45C207.951 309.735 213.506 309.375 215.131 308.11C217.409 306.339 217.856 300.577 221.432 304.142C224.979 307.679 221.86 311.793 218.484 313.988Z" fill="black"/>
<path fill-rule="evenodd" clip-rule="evenodd" d="M189 299.026C192.698 298.484 200.925 306.456 196.933 306.986C194.291 307.337 189.577 301.156 189 299.026Z" fill="black"/>
</svg>
